# xmcd CD database file
#
# Track frame offsets:
#	150
#	26057
#	56252
#	107065
#	138883
#	165877
#	189245
#	219531
#	241326
#	284383
#
# Disc length: 4262 seconds
#
# Revision: 0
# Processed by: cddbd v1.5.1PL0 Copyright (c) Steve Scherf et al.
# Submitted via: CDex 1.51
#
DISCID=8010a40a
DTITLE=The Jim Knapp Orchestra - Secular beathing
DYEAR=2002
DGENRE=Jazz
TTITLE0=Kennewick, Man
TTITLE1=Combos In Indiana
TTITLE2=Moon And Sand
TTITLE3=G, Baby
TTITLE4=Nanna's Lied
TTITLE5=Secular Breathing
TTITLE6=Home
TTITLE7=Buddha Bang
TTITLE8=Kreuzberg Soliloquy
TTITLE9=Laura Mae's Getaway
EXTD=YEAR: 2002
EXTT0=
EXTT1=
EXTT2=
EXTT3=
EXTT4=
EXTT5=
EXTT6=
EXTT7=
EXTT8=
EXTT9=
PLAYORDER=
